<svg xmlns="http://www.w3.org/2000/svg" clip-rule="evenodd" fill-rule="evenodd" height="173.397mm" image-rendering="optimizeQuality" shape-rendering="geometricPrecision" text-rendering="geometricPrecision" viewBox="0 0 173.397 173.397" width="173.397mm"><g id="Layer_x0020_1"><g id="_261290592"><path id="_261291912" d="m104.012 50.9367c-1.6845-.0003-3.0517-1.3668-3.0517-3.0515l.0001-3.7627c0-1.685 1.3668-3.0513 3.0516-3.0516 1.6851-.0003 3.0521 1.3666 3.0521 3.0517l.0001 3.7622c0 1.6851-1.367 3.0522-3.0522 3.0519zm-8.2669 2.2157c-1.0901-.0007-2.0964-.579-2.643-1.5261l-1.8809-3.2592c-.8412-1.4575-.3397-3.326 1.1173-4.1678 1.4574-.8422 3.3239-.3402 4.1662 1.1162l1.8844 3.2582c.8425 1.4568.3397 3.3317-1.1189 4.1711-.4647.2673-.989.408-1.5251.4076zm-6.0537 6.0526c-.5369-.0001-1.0613-.1404-1.5263-.409l-3.2574-1.8817c-1.456-.8411-1.9584-2.7111-1.118-4.168.8408-1.4574 2.7127-1.9587 4.1697-1.1177l3.2581 1.8807c1.4582.8417 1.9597 2.7129 1.1169 4.1707-.547.9459-1.5533 1.5252-2.643 1.525zm-2.2151 8.2674h-3.7621c-1.6847 0-3.0521-1.3666-3.052-3.0516.0001-1.6849 1.3669-3.0516 3.0518-3.0518l3.7622-.0004c1.685-.0002 3.0518 1.3674 3.0519 3.0522s-1.3672 3.0516-3.0518 3.0516zm-1.0402 10.1491c-1.0899-.0005-2.0989-.5788-2.6459-1.5255-.8416-1.4564-.339-3.3283 1.1173-4.1692l3.2581-1.8811c1.4579-.8417 3.3276-.3408 4.1692 1.1171.8414 1.4576.3399 3.3271-1.1175 4.1687l-3.2574 1.881c-.4637.2678-.9882.4093-1.5238.409zm7.4252 7.4294c-.536-.0003-1.0606-.1407-1.5244-.4096-1.456-.8441-1.9576-2.7093-1.1157-4.1676l1.8812-3.2584c.8417-1.4579 2.7112-1.9585 4.1692-1.1171 1.4568.8408 1.9595 2.7133 1.1172 4.1698l-1.8841 3.2578c-.5469.9456-1.5537 1.5256-2.6434 1.5251zm10.1509 2.7196c-1.6846-.0001-3.0519-1.3667-3.0519-3.0515l.0001-3.7627c0-1.685 1.3668-3.0515 3.0517-3.0517 1.685-.0002 3.052 1.3668 3.052 3.0519l.0001 3.7621c0 1.685-1.367 3.052-3.052 3.0519zm10.1496-2.7196c-1.089-.0011-2.0964-.5793-2.6425-1.5255l-1.8807-3.2584c-.8415-1.4578-.3406-3.3272 1.1174-4.1687 1.4567-.8409 3.3252-.3396 4.1662 1.1169l1.8811 3.2578c.842 1.4581.3443 3.3283-1.1152 4.1698-.4648.2681-.9896.4086-1.5263.4081zm7.429-7.4294c-.5368-.0001-1.0612-.1402-1.5261-.4088l-3.2575-1.8819c-1.457-.8417-1.9589-2.7104-1.1176-4.1679.8416-1.4582 2.7116-1.959 4.1697-1.1172l3.2578 1.8809c1.4576.8416 1.9597 2.7125 1.1169 4.1698-.5471.9461-1.5532 1.5254-2.6432 1.5251zm2.7196-10.1491h-3.762c-1.6847 0-3.0521-1.3666-3.052-3.0516s1.3668-3.0516 3.0518-3.0518l3.7621-.0004c1.685-.0002 3.0518 1.3673 3.0519 3.0522s-1.3671 3.0516-3.0518 3.0516zm-5.9774-8.2674c-1.09-.0004-2.0962-.5788-2.6431-1.5253-.8425-1.4579-.3406-3.3278 1.1173-4.1697l3.2578-1.8814c1.4567-.8413 3.3287-.3395 4.1696 1.1175.8413 1.4578.3399 3.327-1.1176 4.1687l-3.2575 1.8812c-.4649.2684-.9897.4092-1.5265.409zm-6.0546-6.0526c-.5358-.0002-1.0601-.1408-1.5239-.4093-1.4567-.8434-1.9581-2.7101-1.1162-4.1684l1.8811-3.2585c.8417-1.458 2.7115-1.959 4.1695-1.1171 1.4582.8421 1.9559 2.7109 1.1144 4.1687l-1.8808 3.2585c-.5462.9463-1.5544 1.5265-2.6441 1.5261zm44.1389 30.1367h-23.1875c-1.6865 0-3.0521-1.3651-3.052-3.0515.0001-1.6861 1.3653-3.0518 3.0518-3.0518l23.1877-.0005c.4662 0 .8493-.3821.8493-.8486 0-.4666-.383-.8489-.8494-.8489l-8.2354-.0005c-1.6848-.0001-3.0522-1.3665-3.052-3.0515.0002-1.6848 1.367-3.0517 3.0518-3.0518l8.2356-.0005c3.8348-.0002 6.953 3.1188 6.9531 6.9533s-3.1186 6.9523-6.953 6.9523zm-1.9643-22.0341h-23.1876c-1.6849 0-3.0525-1.3666-3.0522-3.0518.0003-1.685 1.3669-3.0517 3.0519-3.0517l23.1879-.0003c.4679 0 .8491-.3808.8491-.8488 0-.4684-.3811-.8489-.8494-.8489l-8.2353-.0004c-1.6849-.0001-3.0524-1.3665-3.0521-3.0517.0003-1.685 1.3669-3.0516 3.0518-3.0517l8.2358-.0004c3.8348-.0002 6.9529 3.1186 6.953 6.9532.0001 3.8341-3.1188 6.9525-6.9529 6.9525zm-1.9647-22.0342h-23.1876c-1.685 0-3.0523-1.3668-3.0521-3.0519.0002-1.685 1.3669-3.0517 3.0519-3.0517l23.1878-.0002c.4679 0 .8493-.381.8493-.8489 0-.4682-.3812-.8491-.8494-.8491l-8.2323-.0001c-1.6866 0-3.0523-1.3654-3.0521-3.0518.0002-1.6863 1.3654-3.0516 3.0519-3.0517l8.2326-.0003c3.8347-.0001 6.9531 3.1183 6.9531 6.953 0 3.8343-3.1188 6.9527-6.9531 6.9527z" fill="#ffffff"/><path id="_261291864" d="m155.319 151.357h-72.796-35.9525-36.3514v9.509h145.0999z" fill="#ffffff"/><path id="_261292200" d="m93.9699 97.391-18.1792 33.536 7.8674 16.866h33.8979l-15.833-33.835-.038-.081z" fill="#ffffff"/><path id="_261292320" d="m105.438 113.489 15.7879 33.7325c.087.1856.1389.3785.1588.5715h32.7618l-29.2606-55.4383z" fill="#ffffff"/><path id="_261292368" d="m72.66 132.647h-15.5799-8.7276v15.146h31.3736z" fill="#ffffff"/><path id="_261291192" d="m57.0799 123.168-12.18-.0004v4.244c0 .921.7486 1.671 1.6705 1.671l10.5097-.0004c.922 0 1.6704-.7493 1.6704-1.6703l.0002-2.5737c0-.921-.7488-1.6702-1.6708-1.6702z" fill="#ffffff"/><path id="_261291048" d="m44.8998 106.504.0001 13.0998h6.364v-23.0268c0-1.8732-1.5224-3.3975-3.3972-3.3975l-11.4345-.0009c-.9835 0-1.782-.797-1.782-1.7811v-15.8808c0-.5514.2537-1.0717.6899-1.4092.4364-.3373 1.0055-.4532 1.5376-.3156l9.8445 2.5503c1.1726.307 2.4408.1112 3.4741-.5363l12.0381-7.5648c.6278-.394 1.0021-1.0723 1.0021-1.8158.0002-.5419-.2043-1.0589-.5755-1.4565-.6988-.7455-1.8346-.8919-2.6977-.3478l-9.6214 6.0425c-1.8623 1.1695-4.1458 1.5227-6.2681.9684l-8.7581-2.2715c-.5572-.1447-1.0089-.5485-1.2162-1.0856-.4144-1.0799-1.0426-2.0446-1.8655-2.8676-1.5592-1.5577-3.629-2.4156-5.8318-2.4156-4.5476-.0004-8.2478 3.6995-8.2478 8.2473l.0001 21.1719c0 2.7218 1.5814 5.2411 4.0323 6.4252l.0501.0242c.954.4552 1.9799.685 3.0516.685h12.6504c3.8393 0 6.9609 3.1216 6.9609 6.9588z" fill="#ffffff"/><path id="_261291624" d="m23.2188 102.911.0002 34.1172h6.3668v-33.9185h-4.297c-.704 0-1.3951-.0666-2.07-.1987z" fill="#ffffff"/><path id="_261291576" d="m35.3989 140.592-12.1799-.0002v4.2441c0 .9209.7485 1.6704 1.6705 1.6704l10.5097-.0004c.9216 0 1.6703-.7486 1.6703-1.6695l.0004-2.5746c0-.9209-.7491-1.6698-1.671-1.6698z" fill="#ffffff"/><path id="_261291504" d="m104.012 54.9147c-5.2409 0-9.5041 4.2648-9.5041 9.5062.0004 5.2413 4.2632 9.5056 9.504 9.5056 5.241-.0001 9.5071-4.2641 9.5071-9.5056.0003-5.2419-4.2663-9.5058-9.507-9.5062z" fill="#ffffff"/><path id="_261291096" d="m10.0271 75.3029.0002 15.3262h4.5631l.0001-17.6081-2.28-.0002c-1.2592 0-2.2834 1.0238-2.2834 2.2821z" fill="#ffffff"/><path id="_261291000" d="m17.0977 45.1795c.0003 5.7118 4.6475 10.3596 10.3592 10.3596 5.7158-.0007 10.363-4.6474 10.363-10.3596.0003-5.7134-4.6475-10.3603-10.3626-10.3606-5.7118 0-10.3596 4.648-10.3596 10.3606z" fill="#ffffff"/><path id="_261291288" d="m52.5253 36.2801c.2149.8122-.0044 1.6799-.5851 2.2907-.5762.6103-1.4307.8784-2.2556.7057-.2437-.0527-.5008-.0783-.7573-.0784-2.024 0-3.674 1.6488-3.674 3.6753.0001 2.0259 1.6496 3.675 3.6738 3.675l31.2176-.0006c2.0283 0 3.6737-1.6477 3.6737-3.6744.0001-1.9955-1.6201-3.6431-3.6151-3.6743-.8289-.0132-1.5949-.4504-2.0283-1.1591-.4335-.7091-.4757-1.5899-.1095-2.3352.2484-.5063.3746-1.0504.3746-1.6194.0002-2.0266-1.6455-3.675-3.6738-3.675-.5637-.0002-1.1026.1239-1.6036.3682-.6059.2945-1.3087.3244-1.9356.0828-.6269-.2419-1.1278-.734-1.3762-1.3583-.5636-1.4012-1.9021-2.3063-3.4129-2.3063-2.0285-.0003-3.674 1.6489-3.674 3.6753.0004.0002 0 .053 0 .054.017.983-.5596 1.8808-1.4643 2.2707-.9006.3902-1.9528.1953-2.6557-.4926-.6897-.6758-1.6032-1.0479-2.5669-1.0479-2.0282-.0009-3.6738 1.6486-3.6738 3.6751 0 .3217.0378.6414.122.9487z" fill="#ffffff"/><path id="_261290664" d="m86.0377 28.207c0 2.0264 1.6496 3.6753 3.6738 3.6753l31.2175-.0005c2.0286 0 3.6778-1.6481 3.6778-3.6748.0003-1.9951-1.6243-3.6428-3.6191-3.674-.829-.0131-1.5948-.4506-2.0283-1.1595-.4331-.7095-.4757-1.59-.1053-2.3355.2482-.5053.3745-1.0496.3745-1.6184.0002-2.0268-1.6496-3.6755-3.6779-3.6755-.5638-.0008-1.1026.1241-1.6035.3688-.606.2942-1.3045.3246-1.9358.0823-.6269-.2427-1.1237-.7337-1.3762-1.3582-.5637-1.4012-1.902-2.3062-3.413-2.3062-2.0241-.0001-3.6738 1.6485-3.6738 3.6752l.0002.0534c.0213.9838-.56 1.8811-1.4605 2.2711-.9043.3896-1.9526.1956-2.6553-.4923-.6943-.6757-1.6034-1.0478-2.5714-1.0478-2.0282 0-3.6738 1.6487-3.6738 3.6752.0003.3216.0421.6408.1219.9492.2151.8125-.0042 1.6795-.5807 2.29-.5805.6103-1.4349.8785-2.2557.7054-.248-.0525-.5049-.0781-.7616-.0789-2.024 0-3.6738 1.6494-3.6738 3.6757z" fill="#ffffff"/></g></g></svg>