<svg xmlns="http://www.w3.org/2000/svg" height="464pt" viewBox="-4 0 464 464" width="464pt"><path d="m114.574219 346.113281 26.113281-26.113281-30.847656-30.847656-17.917969 5.976562zm0 0" fill="#ffffff"/><path d="m256 168c0-10.414062-6.710938-19.214844-16-22.527344v38.527344c0 2.238281-.167969 4.433594-.335938 6.632812 9.464844-3.21875 16.335938-12.097656 16.335938-22.632812zm0 0" fill="#ffffff"/><path d="m224 113.832031c-13.214844 2.449219-38.785156 6.167969-72 6.167969s-58.785156-3.71875-72-6.167969v70.167969c0 39.703125 32.304688 72 72 72s72-32.296875 72-72zm-112 46.167969c-4.414062 0-8-3.585938-8-8s3.585938-8 8-8 8 3.585938 8 8-3.585938 8-8 8zm40 72c-17.648438 0-32-14.351562-32-32h16c0 8.824219 7.175781 16 16 16s16-7.175781 16-16h16c0 17.648438-14.351562 32-32 32zm40-72c-4.414062 0-8-3.585938-8-8s3.585938-8 8-8 8 3.585938 8 8-3.585938 8-8 8zm0 0" fill="#ffffff"/><path d="m163.3125 320 26.113281 26.113281 22.652344-50.984375-17.917969-5.976562zm0 0" fill="#ffffff"/><path d="m344 224h64v16h-64zm0 0" fill="#ffffff"/><path d="m64 93.769531 9.9375 2.46875c.308594.074219 31.75 7.761719 78.0625 7.761719s77.753906-7.6875 78.0625-7.769531l9.9375-2.460938v35.039063c5.953125 1.214844 11.328125 3.855468 16 7.390625v-32.199219c0-57.34375-46.65625-104-104-104s-104 46.65625-104 104v32.207031c4.671875-3.535156 10.054688-6.183593 16-7.390625zm0 0" fill="#ffffff"/><path d="m427.71875 144h-103.4375l-21.328125 32h146.09375zm0 0" fill="#ffffff"/><path d="m376 270.742188 64 37.328124v-116.070312h-128v116.070312zm-48-62.742188h96v48h-96zm0 0" fill="#ffffff"/><path d="m224 464h16v-48h48v-29.246094l-64 19.199219zm0 0" fill="#ffffff"/><path d="m64.335938 190.632812c-.167969-2.199218-.335938-4.394531-.335938-6.632812v-38.527344c-9.289062 3.3125-16 12.113282-16 22.527344 0 10.535156 6.871094 19.414062 16.335938 22.632812zm0 0" fill="#ffffff"/><path d="m272 331.40625 15.542969-9.0625c-3.3125-2.414062-6.949219-4.375-10.886719-5.679688l-49.328125-16.449218-32.753906 73.679687-34.574219-34.582031v68.6875h48v-13.953125l80-24v-18.046875h-16zm0 0" fill="#ffffff"/><path d="m376 289.257812-80.121094 46.742188h160.242188zm0 0" fill="#ffffff"/><path d="m304 464h32v-80h80v80h32v-112h-144zm0 0" fill="#ffffff"/><path d="m352 400h48v64h-48zm0 0" fill="#ffffff"/><path d="m256 432h32v32h-32zm0 0" fill="#ffffff"/><path d="m76.671875 300.207031-49.320313 16.441407c-16.359374 5.457031-27.351562 20.703124-27.351562 37.945312v53.40625h144v-68.6875l-34.574219 34.574219zm0 0" fill="#ffffff"/><path d="m184 265.886719c-9.9375 3.898437-20.703125 6.113281-32 6.113281s-22.0625-2.214844-32-6.113281v10.800781l32 32 32-32zm0 0" fill="#ffffff"/></svg>