<svg xmlns="http://www.w3.org/2000/svg" id="Layer_1" enable-background="new 0 0 500 500" viewBox="0 0 500 500"><path clip-rule="evenodd" d="m125.138 75.915c0-4.021 3.26-7.281 7.281-7.281s7.281 3.26 7.281 7.281l.136 43.677c.001.318.139.591.395.78s.557.242.862.15l24.242-7.338c.417-.126.692-.496.692-.932v-48.927c0-4.037 3.273-7.31 7.31-7.31s7.31 3.273 7.31 7.31v55.072c0 3.371-2.283 6.209-5.386 7.054-.009.002-.017.005-.027.007l-75.307 22.795c-.424.128-.7.509-.692.952l.543 27.554c.005.252-.075.471-.241.661l-.253.289c-.192.219-.442.333-.733.333h-12.36c-.53 0-.964-.425-.974-.955l-.654-33.219c-.001-.027-.002-.05-.005-.078-.341-3.406 1.76-6.689 5.16-7.716l34.88-10.558c.419-.127.693-.498.692-.936zm305.581 252.592c-16.724.903-24.668 21.65-12.368 33.473 2.329 2.238 5.223 3.899 8.445 4.756.482.128.977-.123 1.158-.588 2.447-6.281 3.792-13.131 3.792-20.307v-16.36c0-.278-.103-.517-.305-.708-.201-.191-.445-.281-.722-.266zm-34.39-85.29-6.27 31.294c-.071.353.045.69.315.926.271.236.621.304.96.186 17.451-6.052 21.167-23.421 6.485-33.031-.279-.183-.602-.212-.91-.083-.309.13-.514.381-.58.708zm-3.027-117.696c-.718-4.183-.833-8.333-.357-12.3.033-.277.165-.503.389-.668.225-.165.48-.224.754-.174 13.114 2.408 24.66 11.3 31.605 23.124.18.306.485.481.84.481h40.5c5.245 0 9.562 4.317 9.562 9.562 0 10.976-27.639 15.469-40.182 19.844-3.007 1.048-4.89 3.867-4.89 6.881h-.021v142.578c0 .526-.417.957-.943.974-8.111.266-15.43 3.663-20.788 9.021-15.4 15.4-10.286 41.255 9.223 49.981.294.132.49.372.556.688.067.315-.014.614-.23.853-9.025 10.015-15.796 10.293-25.135 16.559-1.955 1.31-3.073 3.401-3.216 5.581-.001.009-.001.017-.002.027l-4.151 44.569c-.047.503-.465.884-.97.884h-20.962c-.537 0-.974-.438-.974-.974v-52.115h-.01c.001-1.728-.608-3.462-1.847-4.854-7.931-8.893-27.141-15.097-46.184-16.917-11.822-1.13-23.863-.596-33.447 1.999-.303.082-.598.024-.847-.167s-.382-.46-.382-.774v-34.948c0-.537.438-.974.974-.974h60.1c4.037 0 7.31-3.273 7.31-7.31 0-1.747-6.873-13.462-7.97-14.84-.014-.018-.026-.033-.038-.051l-4.184-6.03c-.212-.306-.235-.678-.063-1.007.173-.33.492-.523.863-.523h20.439c5.496 0 18.364-2.007 22.277-5.389 6.198-5.357 5.295-3.702 6.385-11.423.058-.411.351-.726.756-.815 34.148-7.519 37.077-46.788 9.635-60.394-.385-.191-.594-.589-.532-1.014l10.747-73.441c-.073.156-.145.313-.215.471-7.552-7.392-12.663-17.002-14.375-26.975zm-171.566 127.654-45.048 64.936c-.212.306-.235.678-.063 1.007.173.33.492.523.863.523h63.515c.537 0 .974.438.974.974v89.915c0 .368-.189.684-.513.858-11.664 6.27-25.677 10.465-41.862 8.791-34.923-3.612-36.603-34.853-69.328-33.474-29.69 1.252-50.885 30.377-61.957 55.916-.135.31-.106.639.08.922.185.283.476.439.814.439h279.103c.537 0 .974-.438.974-.974v-48.513c0-.316-.135-.587-.387-.778-6.733-5.082-20.385-8.75-34.403-10.09-20.134-1.924-35.205 2.542-46.464 9.032-.31.178-.664.178-.974-.001s-.487-.486-.487-.843v-71.203c0-.537.438-.974.974-.974h63.515c.372 0 .691-.193.863-.523.172-.329.149-.701-.063-1.007l-45.407-65.453c-3.354-4.846.178-11.432 5.996-11.427v-.023h23.707c.381 0 .707-.204.875-.546s.128-.725-.106-1.026l-50.544-65.097c-3.747-4.839-.102-11.746 5.768-11.741v-.023h26.748c.372 0 .69-.192.863-.521s.15-.701-.061-1.006l-44.627-64.693c-.188-.272-.472-.421-.802-.421s-.614.149-.802.421l-44.627 64.693c-.211.306-.234.677-.061 1.006s.491.521.863.521h26.748c5.868 0 9.868 6.901 5.421 12.212-.008.01-.015.018-.023.028l-50.174 64.621c-.234.301-.273.684-.106 1.026.168.342.494.546.875.546h23.707c6.179 0 9.512 7.187 5.681 11.909-.011.023-.024.04-.038.061zm-65.374 79.772c-3.311-2.286-4.142-6.825-1.856-10.136l19.665-28.346c.212-.306.235-.678.063-1.007-.173-.33-.492-.523-.863-.523h-39.551c-12.2 0-22.135-9.935-22.135-22.135v-61.668c0-2.893 1.681-5.394 4.12-6.579.014-.007.027-.013.041-.021 2.345-1.279 5.73-4.158 7.806-6.235 4.674-4.674 7.841-9.776 9.181-14.246 1.926-6.422.244-8.105-6.179-6.178-6.453 1.936-13.71 7.675-18.345 13.848-1.429 1.905-3.613 2.911-5.825 2.913v.028h-73.269c-5.024 0-7.489 5.604-4.542 9.349 11.645 14.802 26.733 25.746 44.803 33.279 2.806 1.165 4.498 3.879 4.5 6.739h.012v112.647c0 9.893 8.085 17.979 17.979 17.979h.87c4.037 0 7.31 3.273 7.31 7.31v5.743c0 .358.178.666.488.844.31.179.666.178.975-.001 5.267-3.057 10.933-6.293 16.824-7.74.41-.1.697-.434.737-.854.341-3.57 3.36-5.302 7.159-5.302h69.929c3.185 0 5.894 2.037 6.895 4.879.007.02.014.037.022.056 3.077 7.255 7.04 13.78 11.814 19.632 3.218 3.945 6.813 7.6 10.759 10.98.296.253.688.308 1.041.145.354-.163.567-.496.567-.885v-72.226c0-.537-.438-.974-.974-.974h-65.881v-.023c-1.43 0-2.874-.418-4.14-1.292zm-85.569-121.229c-4.037 0-7.31-3.273-7.31-7.31s3.273-7.31 7.31-7.31h7.586c4.037 0 7.31 3.273 7.31 7.31s-3.273 7.31-7.31 7.31zm351.379-56.883h1.701c4.037 0 7.31-3.273 7.31-7.31s-3.273-7.31-7.31-7.31h-1.701c-4.037 0-7.31 3.273-7.31 7.31s3.273 7.31 7.31 7.31z" fill-rule="evenodd" fill="#ffffff"/></svg>