<svg xmlns="http://www.w3.org/2000/svg" data-name="Layer 1" id="Layer_1" viewBox="0 0 128 128"><title/><path d="M76.88672,24.3316C67.0918,11.46509,66,1.89258,65.99023,1.80371A1.99723,1.99723,0,0,0,64.00684,0H64a2.00494,2.00494,0,0,0-1.99023,1.79688C62,1.89258,60.9082,11.46509,51.11328,24.3316,44.53119,32.97888,46.33362,39.91266,48,43.28326V41.998a15.89454,15.89454,0,0,1,3.1651-9.5127,19.97144,19.97144,0,0,1,3.13177-5.7298A67.30622,67.30622,0,0,0,64,9.66425a67.30622,67.30622,0,0,0,9.70313,17.09125,19.97144,19.97144,0,0,1,3.13177,5.7298A15.89454,15.89454,0,0,1,80,41.998v1.28528C81.66638,39.91266,83.46881,32.97888,76.88672,24.3316Z" fill="#ffffff"/><path d="M76,41.998a12,12,0,1,0-24,0v8.00018a12,12,0,1,0,24,0Zm-4,8.00018a8,8,0,1,1-16,0V41.998a8,8,0,1,1,16,0Z" fill="#ffffff"/><path d="M102.042,110.65485,82,104.334v-5.7937l10.53613,3.20911c.03711.01172.07422.02148.11133.03027a7.73834,7.73834,0,0,0,1.834.22168,7.56149,7.56149,0,0,0,7.08789-10.04419L92.13477,64.94971a7.5542,7.5542,0,0,0-5.14746-4.796l-8.97552-2.446a16.08118,16.08118,0,0,1-2.56512,3.447l10.48987,2.85846a3.55886,3.55886,0,0,1,2.42285,2.25592l9.43457,27.00647a3.55414,3.55414,0,0,1-4.15332,4.629L64.583,89.05377a2.00963,2.00963,0,0,0-1.166,0L34.35938,97.90454a3.55414,3.55414,0,0,1-4.15332-4.629l9.43457-27.00549a3.55815,3.55815,0,0,1,2.42285-2.2569l10.48987-2.85846a16.08118,16.08118,0,0,1-2.56512-3.447l-8.97552,2.446a7.55348,7.55348,0,0,0-5.14746,4.797L26.43066,91.95715a7.55268,7.55268,0,0,0,8.92187,9.82251c.03711-.00879.07422-.01855.11133-.03027L46,98.54028v5.7937l-20.042,6.32086A8.85334,8.85334,0,0,0,20,119.14917,8.61259,8.61259,0,0,0,28.33008,128H99.66992A8.61513,8.61513,0,0,0,108,119.1394,8.84994,8.84994,0,0,0,102.042,110.65485ZM50,97.3219l14-4.2641,14,4.2641v6.67755H50Zm49.66992,26.678H53.332a3.5739,3.5739,0,0,1,0-7.09094H72.9043a2.00006,2.00006,0,0,0,0-4.00012H53.332a7.35234,7.35234,0,0,0-7.124,7.54511,7.84976,7.84976,0,0,0,.83691,3.546H28.33008A4.62065,4.62065,0,0,1,24,119.1394a4.82184,4.82184,0,0,1,3.16113-4.67l20.51465-6.46991H80.32422l20.51465,6.46991A4.82563,4.82563,0,0,1,104,119.14917,4.61772,4.61772,0,0,1,99.66992,123.99988Z" fill="#ffffff"/><path d="M114,48.99817a6.00012,6.00012,0,1,0-6-6.00012A6.00663,6.00663,0,0,0,114,48.99817Zm0-8.00018a2.00006,2.00006,0,1,1-2,2.00006A2.00262,2.00262,0,0,1,114,40.998Z" fill="#ffffff"/><path d="M14,48.99817A6.00012,6.00012,0,1,0,8,42.998,6.00663,6.00663,0,0,0,14,48.99817ZM14,40.998A2.00006,2.00006,0,1,1,12,42.998,2.00262,2.00262,0,0,1,14,40.998Z" fill="#ffffff"/><path d="M14,78.99884A6.00015,6.00015,0,1,0,20,84.999,6.00664,6.00664,0,0,0,14,78.99884ZM14,86.999a2,2,0,1,1,2-2A2.00261,2.00261,0,0,1,14,86.999Z" fill="#ffffff"/><path d="M114,78.99884a6.00015,6.00015,0,1,0,6,6.00018A6.00664,6.00664,0,0,0,114,78.99884Zm0,8.00018a2,2,0,1,1,2-2A2.00261,2.00261,0,0,1,114,86.999Z" fill="#ffffff"/><path d="M47,12.99738a6,6,0,1,0-6,6.00012A6.00664,6.00664,0,0,0,47,12.99738Zm-6,2a2,2,0,1,1,2-2A2.00261,2.00261,0,0,1,41,14.99738Z" fill="#ffffff"/><path d="M87,18.9975a6.00015,6.00015,0,1,0-6-6.00012A6.00663,6.00663,0,0,0,87,18.9975Zm0-8.00018a2,2,0,1,1-2,2.00006A2.00262,2.00262,0,0,1,87,10.99731Z" fill="#ffffff"/><path d="M64,82.999a2.00011,2.00011,0,0,0,2-2.00006V72.62219L73.125,84.957a2.00027,2.00027,0,0,0,1.13477.90918l9.55078,2.98346a2.00028,2.00028,0,0,0,1.19336-3.81842l-8.80566-2.751L67.46387,67.15973a3.99869,3.99869,0,0,0-6.92676,0L51.80176,82.28021l-8.80566,2.751a2.00028,2.00028,0,0,0,1.19336,3.81842l9.55078-2.98346A2.00027,2.00027,0,0,0,54.875,84.957L62,72.62219V80.9989A2.00011,2.00011,0,0,0,64,82.999Z" fill="#ffffff"/><path d="M100.82312,44.83478c2.05084-15.87134,7.81409-23.30951,7.86829-23.37823a2.00026,2.00026,0,0,0-2.835-2.793c-.07153.059-7.333,5.898-22.82019,7.99475a25.04239,25.04239,0,0,1,1.54059,3.81415,63.98593,63.98593,0,0,0,17.25616-4.8869,66.95961,66.95961,0,0,0-4.8233,17.66913A23.55166,23.55166,0,0,1,100.82312,44.83478Z" fill="#ffffff"/><path d="M44.96375,26.65826c-15.48718-2.09674-22.74866-7.93579-22.81531-7.99084a2.00039,2.00039,0,0,0-2.84473,2.78326c.05908.07452,5.82233,7.51276,7.87317,23.38409a23.55166,23.55166,0,0,1,3.81342-1.58014A66.95961,66.95961,0,0,0,26.167,25.58551a63.98593,63.98593,0,0,0,17.25616,4.8869A25.04239,25.04239,0,0,1,44.96375,26.65826Z" fill="#ffffff"/><path d="M26.83929,78.6582l1.36786-3.91547c-.28674-.20673-.5733-.42108-.8595-.64728a65.31471,65.31471,0,0,0-16.9043-9.94067,65.33243,65.33243,0,0,0,16.9043-9.94067c4.91992-3.88971,9.94824-4.91028,14.16406-2.86823a11.96957,11.96957,0,0,1,4.14038,3.39758l2.8653-.78082a15.85614,15.85614,0,0,1-.44391-2.51416,15.59876,15.59876,0,0,0-4.8186-3.70227c-3.28223-1.59088-10.03516-3.26965-18.3877,3.32916C12.26074,61.04144,2.88574,62.1557,2.7998,62.16449a2.00038,2.00038,0,0,0,0,3.98059c.0918.00879,9.36035,1.04395,22.06738,11.08911C25.53558,77.76245,26.19232,78.23175,26.83929,78.6582Z" fill="#ffffff"/><path d="M125.2002,62.16449c-.0918-.00879-9.36035-1.04395-22.06738-11.08911-8.35156-6.60077-15.10645-4.91809-18.3877-3.32916a15.59731,15.59731,0,0,0-4.8186,3.70233,15.85369,15.85369,0,0,1-.44391,2.51416l2.86536.78076a11.96937,11.96937,0,0,1,4.14032-3.39758,10.232,10.232,0,0,1,4.502-1.02734c3.08887,0,6.39941,1.31641,9.66211,3.89557a65.31649,65.31649,0,0,0,16.9043,9.94067,65.33064,65.33064,0,0,0-16.9043,9.94067c-.28619.2262-.57288.44049-.85968.64728l1.36786,3.91528c.647-.42639,1.30383-.89569,1.97229-1.42383,12.60645-9.96606,21.98145-11.08032,22.06738-11.08911a2.00038,2.00038,0,0,0,0-3.98059Z" fill="#ffffff"/></svg>